HIERARCHY
ROOT Hips
{
  OFFSET -6.76073 104.139 -1.13753
  CHANNELS 6 Xposition Yposition Zposition Zrotation Xrotation Yrotation
  JOINT ToSpine
  {
    OFFSET -0.0105055 1.38907 -7.13956
    CHANNELS 3 Zrotation Xrotation Yrotation
    JOINT Spine
    {
      OFFSET 0.0105055 10 1
      CHANNELS 3 Zrotation Xrotation Yrotation
      JOINT Spine1
      {
        OFFSET 0 12 1.60637
        CHANNELS 3 Zrotation Xrotation Yrotation
        JOINT Neck
        {
          OFFSET 0 27 2.26658
          CHANNELS 3 Zrotation Xrotation Yrotation
          JOINT Head
          {
            OFFSET 0 9 2.12705
            CHANNELS 3 Zrotation Xrotation Yrotation
            End Site
            {
              OFFSET 0 11 2
            }
          }
        }
        JOINT LeftShoulder
        {
          OFFSET 8 19.6109 2.86452
          CHANNELS 3 Zrotation Xrotation Yrotation
          JOINT LeftArm
          {
            OFFSET 12 1 0.681055
            CHANNELS 3 Zrotation Xrotation Yrotation
            JOINT LeftForeArm
            {
              OFFSET 19 0 -1.52608
              CHANNELS 3 Zrotation Xrotation Yrotation
              JOINT LeftHand
              {
                OFFSET 23 0 0
                CHANNELS 3 Zrotation Xrotation Yrotation
                End Site
                {
                  OFFSET 10 0 0
                }
              }
            }
          }
        }
        JOINT RightShoulder
        {
          OFFSET -8 19.6109 2.86452
          CHANNELS 3 Zrotation Xrotation Yrotation
          JOINT RightArm
          {
            OFFSET -12 1 0.681055
            CHANNELS 3 Zrotation Xrotation Yrotation
            JOINT RightForeArm
            {
              OFFSET -19 0 -1.52608
              CHANNELS 3 Zrotation Xrotation Yrotation
              JOINT RightHand
              {
                OFFSET -23 0 0
                CHANNELS 3 Zrotation Xrotation Yrotation
                End Site
                {
                  OFFSET -10 0 0
                }
              }
            }
          }
        }
      }
    }
  }
  JOINT LeftUpLeg
  {
    OFFSET 9 -7.17245 0
    CHANNELS 3 Zrotation Xrotation Yrotation
    JOINT LeftLeg
    {
      OFFSET 0 -44.1113 0
      CHANNELS 3 Zrotation Xrotation Yrotation
      JOINT LeftFoot
      {
        OFFSET 0 -36.1829 0
        CHANNELS 3 Zrotation Xrotation Yrotation
        JOINT LeftToeBase
        {
          OFFSET 0 -4.84184 13
          CHANNELS 3 Zrotation Xrotation Yrotation
          End Site
          {
            OFFSET 0 1 6
          }
        }
      }
    }
  }
  JOINT RightUpLeg
  {
    OFFSET -9 -7.17245 0
    CHANNELS 3 Zrotation Xrotation Yrotation
    JOINT RightLeg
    {
      OFFSET 0 -44.0551 0
      CHANNELS 3 Zrotation Xrotation Yrotation
      JOINT RightFoot
      {
        OFFSET 0 -36.1469 0
        CHANNELS 3 Zrotation Xrotation Yrotation
        JOINT RightToeBase
        {
          OFFSET 0 -4.92256 13
          CHANNELS 3 Zrotation Xrotation Yrotation
          End Site
          {
            OFFSET 0 1 6
          }
        }
      }
    }
  }
}
MOTION
Frames:	19
Frame Time:	0.0333333
-13.4716 33.29 48.6548 -8.42822 71.0643 8.23375 0 0 0 1.79091 5.46778 0.491366 1.89255 4.96199 0.461721 12.3615 -56.2025 7.08946 -3.83914 21.4902 4.31171 -11.4327 3.12941 -13.1963 6.57743 15.4587 -15.7763 17.7964 9.06772 -63.8499 42.5512 0.916194 2.35275 25.8141 4.62828 10.905 -17.152 14.4667 12.6473 -26.7098 13.5561 65.0216 -27.051 -1.04932 4.36009 44.8028 5.02368 23.8099 5.24256 7.86241 2.16232 -23.3199 1.86881 0.382079 -3.53703 -6.17765 7.07313 -41.2874 3.63746 -25.5831 -4.22087 6.89036 -8.06553 12.2525 -2.18709 0.23806 1.12944 -1.08473 -3.55511 
-13.6698 33.9631 49.0369 -7.0653 69.4868 7.34561 0 0 0 1.2461 4.5689 0.325661 1.93698 6.1157 0.173751 12.8003 -56.7034 7.07889 -4.22301 20.9386 4.24568 -9.79301 2.94404 -13.534 5.96201 17.5884 -19.9314 15.0851 9.94622 -57.348 42.8856 0.936492 2.38406 24.4627 4.87577 12.2861 -14.9751 15.4859 14.9161 -24.6587 15.753 59.4005 -27.3558 -1.14352 4.69663 44.6479 5.26989 23.5632 5.35858 8.01495 1.14241 -22.2617 4.06206 0.801143 -3.68564 -7.0923 7.28599 -41.3724 4.95073 -25.668 -4.15922 6.86685 -7.78083 14.0136 -2.79526 0.352066 1.39204 1.97088 -3.33357 
-13.9143 34.6292 49.4677 -6.59793 67.7597 6.65065 0 0 0 0.895329 4.47168 0.431846 2.2229 5.72557 0.216504 11.7268 -56.4178 6.38632 -3.82237 20.554 3.8274 -10.5522 3.25449 -14.6177 7.68681 20.9601 -23.2048 12.1128 10.1117 -50.715 42.9266 1.07348 2.72984 23.6575 5.62056 15.1405 -12.8081 17.5714 15.31 -21.8806 17.0982 53.7925 -27.4136 -1.23531 5.06137 44.9576 6.15652 23.4868 5.389 8.17819 0.48224 -22.1569 5.70426 1.11819 -3.49717 -5.62046 7.07764 -41.065 5.78965 -25.3094 -4.12901 6.58767 -6.90667 12.217 -0.911601 0.0969879 1.1047 0.0141424 -3.13902 
-14.0977 35.3107 50.0217 -6.13504 65.8911 5.77373 0 0 0 1.20968 4.81696 0.555874 1.34368 5.19027 0.585778 12.1528 -56.6227 6.38318 -3.89724 20.6146 3.72539 -9.47014 3.17663 -15.1759 8.67181 24.4051 -28.4354 8.6409 9.52338 -42.5675 42.9116 1.26086 3.20688 22.2603 5.90315 16.9284 -9.8878 19.7195 17.7519 -18.6894 18.7485 46.464 -27.2668 -1.35326 5.57619 45.2261 7.30284 23.173 5.69011 8.42046 -2.01318 -22.1917 7.64061 1.50066 -3.39075 -5.04214 6.90658 -40.8932 6.52557 -25.0243 -4.36133 6.77256 -5.84989 13.6039 -1.00004 0.132008 1.54616 3.24108 -3.36772 
-14.3063 35.8326 50.5643 -5.62656 64.2732 5.62509 0 0 0 1.3253 3.92253 0.428051 0.739518 5.84573 0.535683 12.0151 -57.4496 6.26891 -3.35306 20.9994 3.34916 -9.74818 3.42133 -16.3181 12.6741 28.9411 -33.566 4.40168 6.31144 -34.9824 42.6782 1.57962 4.04205 22.0658 6.09958 17.7385 -9.22955 22.0826 21.0427 -14.9347 18.9251 39.4337 -26.539 -1.37331 5.81824 45.5792 7.71418 23.0257 5.87411 8.77332 -4.43333 -21.9849 8.58322 1.67034 -2.96187 -2.829 6.26911 -40.7117 7.84339 -24.757 -4.19166 6.22252 -5.28804 11.2406 3.09501 -0.310867 0.975485 -2.20573 -3.48217 
-14.3761 36.255 51.2615 -5.35373 62.3861 5.33244 0 0 0 1.52002 3.17693 0.525778 0.528984 6.53232 0.693311 11.4395 -58.2077 5.94795 -2.87869 20.9416 2.94319 -9.83493 3.47907 -16.5227 19.7172 34.6304 -41.9665 -0.0086254 -0.18764 -28.1391 41.7206 2.183 5.72982 20.9624 5.94267 17.9681 -8.65468 25.2983 25.4316 -10.6631 17.4922 31.9478 -25.7737 -1.34095 5.85637 45.8076 8.81009 22.8321 5.91879 8.75163 -6.05245 -21.4893 10.2735 1.9532 -2.79847 -2.36242 5.96211 -40.549 9.07484 -24.3612 -4.3784 6.04321 -4.35803 10.9204 5.3545 -0.512236 1.18854 -2.02456 -4.0537 
-14.3747 36.6286 52.0136 -4.85478 60.582 4.94284 0 0 0 1.60825 3.01015 0.519346 0.181051 6.56323 0.770507 11.4428 -59.6045 5.93347 -2.65135 21.2276 2.64227 -12.0855 4.14194 -17.8368 29.3956 39.3448 -48.6867 -4.17139 -7.2891 -23.445 39.9866 2.79131 7.66238 21.3783 6.1329 18.333 -10.0294 28.7425 29.212 -6.75589 14.9089 25.6579 -24.7781 -1.27097 5.78063 45.5882 9.60182 22.3135 6.33318 8.89676 -6.99843 -20.5251 12.4344 2.25896 -2.90819 -2.31208 6.23364 -40.7154 10.1017 -24.23 -4.53164 6.36981 -3.26393 10.76 7.4452 -0.703129 0.899529 -1.98669 -3.18119 
-14.3518 36.8749 52.8789 -4.85123 59.1362 4.83938 0 0 0 1.98966 2.20702 0.537167 -0.324643 6.88839 0.892479 12.2776 -60.5294 6.20379 -3.2191 20.9291 2.69019 -12.5785 4.45502 -18.8822 31.3839 38.452 -52.5666 -8.98256 -7.81101 -18.5659 38.5763 3.22083 9.18086 21.7966 6.47345 19.2096 -8.57556 27.4396 30.988 -3.37653 17.4333 20.6759 -23.3662 -1.13686 5.49198 45.6265 10.4406 22.2263 6.23142 8.88031 -7.52058 -20.0532 14.4633 2.57435 -3.088 -1.12508 6.86196 -40.6331 10.8137 -24.0413 -4.69792 6.59278 -2.36555 10.9742 9.34049 -0.898783 1.04204 -0.722544 -3.19659 
-14.3152 36.8994 53.7232 -4.94152 57.7171 4.76028 0 0 0 2.0649 1.27503 0.642235 -0.138803 7.65689 0.938249 11.7681 -62.3323 6.19513 -2.63249 21.5811 2.33653 -14.1029 4.92514 -19.6074 33.6075 37.2551 -55.3202 -13.0276 -7.08731 -14.9063 37.2327 3.14655 9.32311 21.6876 6.6198 19.7883 -5.62155 21.8454 32.1218 1.43912 24.106 15.5077 -22.0394 -0.99485 5.10729 45.5537 11.3584 21.7188 6.84222 8.8734 -8.58695 -20.7602 16.5492 3.04999 -3.46917 -1.0799 7.75921 -40.5196 11.5814 -23.7803 -4.89469 6.91658 -1.15832 10.9871 10.7743 -1.03953 1.46106 1.07743 -3.78629 
-14.2252 36.6442 54.4519 -5.2188 56.3645 4.97807 0 0 0 2.86729 0.82334 0.50125 -0.942479 7.68699 0.972204 12.5968 -64.0589 6.73185 -2.67059 22.1402 2.23552 -13.8943 5.08301 -20.5376 34.2113 37.8357 -57.5811 -15.6501 -6.97444 -12.1945 36.2192 3.19871 9.75952 22.2758 6.90759 20.3194 -2.71007 17.975 32.4886 5.10192 29.1737 11.1954 -20.9439 -0.908257 4.90984 46.0924 12.3687 21.5934 6.87346 9.10955 -10.243 -20.309 17.5937 3.17617 -3.34773 -0.508896 7.56775 -40.5268 12.6136 -23.458 -5.0631 7.23658 0.0916123 11.1688 11.8743 -1.16503 1.25729 1.95198 -2.97158 
-14.1153 36.1046 55.2088 -5.19349 55.4046 4.8608 0 0 0 3.11734 -0.234378 0.479354 -1.56722 8.18874 1.09541 15.8521 -65.6801 8.59632 -4.09968 22.4624 2.83108 -13.4282 5.06258 -20.9226 38.6934 40.5568 -61.8538 -17.0121 -10.0357 -12.0214 35.1838 3.24473 10.2108 22.8263 7.11551 20.5905 -1.54878 17.3561 32.8563 7.59931 30.9137 8.47734 -20.1579 -0.817783 4.59955 46.7368 13.3078 21.8409 6.45433 9.49623 -12.1913 -20.4624 18.5055 3.36819 -3.74918 0.0275495 8.56606 -40.8067 13.5209 -23.1837 -5.24281 7.35448 1.80381 11.2246 12.7084 -1.25404 1.63848 3.82859 -3.43347 
-14.072 35.3103 55.8859 -5.37589 55.1566 4.97244 0 0 0 3.18825 -2.28151 0.551666 -1.64605 9.25506 1.10945 16.7399 -67.2461 9.42284 -4.26451 22.4807 2.84781 -13.6194 5.04459 -20.6397 39.6868 41.5946 -63.5186 -17.1022 -9.97255 -11.9941 34.3933 3.27736 10.5621 23.1834 7.26547 20.8115 -1.64487 18.4179 32.6663 8.76995 30.5311 7.46226 -19.8881 -0.809017 4.61222 47.3968 13.703 21.9369 6.34746 9.92279 -14.0506 -19.957 19.2678 3.42067 -3.55844 0.499385 8.19295 -40.9708 14.0046 -22.9476 -5.40168 7.63887 3.37121 11.1397 13.3495 -1.30725 1.7494 4.3155 -3.57991 
-14.0283 34.4041 56.6669 -5.54092 54.6307 5.12805 0 0 0 3.45935 -3.80072 0.613592 -1.83348 9.82311 1.12801 17.112 -67.9621 9.89521 -4.36588 22.164 2.91303 -13.5924 5.04286 -20.6574 37.9676 42.7644 -62.9684 -16.5364 -9.11181 -12.4342 34.9343 3.24628 10.291 23.3852 7.30559 20.7861 -1.01192 19.4303 32.1422 9.27938 31.0212 6.94357 -20.012 -0.855799 4.84772 48.0518 14.3131 21.8724 6.38247 10.2427 -16.2117 -19.9559 19.8705 3.53007 -3.46723 1.50094 8.13797 -41.085 14.8461 -22.6021 -5.56915 7.84708 4.89773 10.7548 13.8554 -1.31079 1.93131 5.7005 -3.65645 
-14.0077 33.4056 57.3433 -5.47872 54.1023 4.97297 0 0 0 3.58263 -5.77554 0.624145 -2.19117 10.9234 1.169 18.5765 -67.9227 10.6302 -5.20824 21.6892 3.23074 -12.4048 4.76687 -20.5999 35.1509 43.4032 -62.6006 -16.171 -6.96977 -11.9869 34.9266 3.29126 10.4368 24.1845 7.47953 20.7372 -1.29727 21.5386 30.9957 8.18842 30.1231 8.62021 -20.3294 -0.935593 5.21372 48.4598 15.0274 21.6489 6.60444 10.6865 -18.105 -20.8342 19.9193 3.69161 -3.90966 2.52838 9.24529 -41.3888 15.6109 -22.3913 -5.78396 8.20412 6.44214 11.033 13.8617 -1.34536 2.6698 6.85704 -5.1603 
-13.9378 32.4346 57.8857 -5.57771 53.5514 5.11538 0 0 0 3.45086 -7.73864 0.792262 -1.64225 12.2486 1.18676 16.3027 -68.4147 9.18478 -4.47521 22.1768 2.60911 -12.7395 4.782 -20.3204 35.9892 44.5146 -63.6074 -15.4961 -6.28325 -12.7416 34.424 3.31813 10.6824 23.223 6.81964 19.3345 0.828725 21.5684 31.4324 7.95388 31.3204 8.57011 -20.6447 -1.07855 5.91779 49.0664 15.6112 21.6087 6.46361 11.1636 -19.9442 -18.3204 21.4538 3.50302 -3.77754 0.454237 8.69006 -41.4287 16.4812 -22.0871 -5.9746 8.43864 6.76829 10.8425 14.0155 -1.33611 3.19899 7.81195 -6.1521 
-13.957 31.5116 58.4569 -5.75789 53.0383 5.10714 0 0 0 3.29978 -9.57846 0.755958 -1.20873 13.1531 0.985737 14.4984 -68.377 8.13773 -3.49013 22.3661 2.14024 -13.3729 4.60679 -18.8304 33.2883 43.9725 -62.7385 -15.026 -3.24187 -12.1975 34.9512 3.27778 10.3872 24.047 6.82533 18.7643 0.558657 22.6348 31.3158 7.44402 31.8972 9.17071 -20.864 -1.22987 6.67085 49.4678 16.3935 21.455 6.59512 11.5088 -20.465 -19.2545 21.321 3.65386 -4.31084 1.96935 10.0637 -41.2018 17.1664 -21.8065 -6.24438 8.52878 5.8725 10.471 14.8215 -1.36596 2.89633 7.3949 -5.54943 
-13.9175 30.6333 58.9119 -5.75715 52.5548 4.8702 0 0 0 3.41245 -11.3986 0.731949 -1.44058 14.0157 0.993263 15.8201 -68.2895 9.09355 -3.85902 22.9828 2.55199 -12.99 4.58309 -19.0968 30.1519 44.7121 -60.5831 -14.6567 -1.68738 -11.9644 35.9131 3.15395 9.71145 24.8283 7.18789 19.3831 0.178784 24.6296 29.7056 6.55168 30.6057 10.3959 -21.3772 -1.39523 7.38343 49.5527 17.3118 21.1761 6.80046 11.8375 -18.9584 -20.8729 20.4701 3.80976 -3.98708 4.63039 9.6435 -41.3083 17.6681 -21.7481 -6.3651 8.90298 5.76821 10.6049 14.7402 -1.37559 3.39865 8.28286 -6.48554 
-13.924 29.8313 59.2514 -5.67372 52.3439 4.78387 0 0 0 3.15204 -14.2666 0.819614 -1.2383 16.2334 1.02387 16.745 -68.7422 9.85011 -4.53881 23.4277 2.94248 -11.7344 4.32212 -19.0922 26.8808 44.2589 -59.4171 -14.3615 0.0188877 -11.5997 36.2444 3.05856 9.3268 23.2358 7.03677 20.0245 3.13812 24.4098 28.3695 5.98452 31.0329 10.5831 -21.6905 -1.52443 7.94461 49.4928 17.9846 21.0613 6.79542 11.6912 -18.3421 -19.9211 21.1605 3.7585 -3.66236 4.26039 8.89983 -41.4071 18.1989 -21.6026 -6.58904 9.05656 5.56665 11.0551 14.6047 -1.421 3.72399 8.99299 -7.03301 
-13.9277 29.0479 59.4728 -5.9259 52.3955 4.89489 0 0 0 3.12058 -16.9578 0.858144 -0.868627 17.6021 0.900492 16.7366 -68.5485 9.90196 -4.92464 23.35 3.17358 -11.0517 4.17315 -19.0498 22.4964 43.9305 -56.9699 -13.5624 2.66244 -11.5192 35.4463 2.99306 9.34754 22.9798 6.95288 19.9433 3.85569 25.3148 27.7079 5.31615 30.8264 11.2963 -22.18 -1.68793 8.59444 49.6882 18.5465 21.0104 6.85174 11.5776 -18.689 -20.2933 21.3808 3.86927 -4.03489 2.87078 9.55759 -41.41 18.4671 -21.4222 -6.71624 9.16084 5.77748 10.9979 14.4621 -1.399 3.72402 9.25023 -6.95149 
